<svg width="550" height="550" viewBox="0 0 550 550" fill="none" xmlns="http://www.w3.org/2000/svg">
<circle cx="275" cy="275" r="275" fill="#478AFF"/>
<path d="M148.553 245.162C142.735 245.162 137.047 246.887 132.209 250.12C127.371 253.353 123.601 257.947 121.374 263.323C119.148 268.698 118.565 274.613 119.7 280.32C120.835 286.027 123.637 291.269 127.751 295.383C131.866 299.497 137.107 302.299 142.814 303.434C148.521 304.569 154.436 303.987 159.811 301.76C165.187 299.533 169.782 295.763 173.014 290.925C176.247 286.087 177.972 280.399 177.972 274.581C177.963 266.781 174.86 259.304 169.345 253.789C163.83 248.274 156.353 245.171 148.553 245.162V245.162Z" fill="white"/>
<path d="M190.793 247.77C198.195 247.77 204.194 241.771 204.194 234.37C204.194 226.969 198.195 220.969 190.793 220.969C183.392 220.969 177.393 226.969 177.393 234.37C177.393 241.771 183.392 247.77 190.793 247.77Z" fill="white"/>
<path d="M207.294 247.84L206.732 246.611L205.854 247.63C203.657 250.123 200.879 252.035 197.766 253.197L196.888 253.513L197.239 254.392C201.972 265.773 202.571 278.452 198.933 290.229C195.294 302.006 187.648 312.138 177.32 318.866C166.992 325.595 154.635 328.495 142.392 327.065C130.149 325.635 118.793 319.964 110.294 311.036C101.795 302.108 96.6902 290.487 95.8642 278.188C95.0383 265.89 98.5437 253.69 105.772 243.706C113.001 233.722 123.497 226.584 135.438 223.529C147.38 220.475 160.014 221.697 171.149 226.984L171.974 227.379L172.334 226.501C173.647 223.449 175.692 220.767 178.288 218.694L179.342 217.816L178.139 217.192C168.999 212.442 158.845 209.974 148.545 210C134.599 210.002 121.028 214.521 109.864 222.879C98.7006 231.237 90.5438 242.986 86.6148 256.368C82.6858 269.749 83.1959 284.043 88.0688 297.11C92.9416 310.177 101.915 321.315 113.646 328.856C125.378 336.398 139.236 339.937 153.147 338.945C167.057 337.953 180.273 332.482 190.815 323.352C201.357 314.223 208.659 301.924 211.628 288.298C214.597 274.671 213.074 260.45 207.286 247.761L207.294 247.84Z" fill="white"/>
<path d="M259.932 246.479H246.32V302.682H259.932V246.479Z" fill="white"/>
<path d="M406.823 246.479H393.211V302.682H406.823V246.479Z" fill="white"/>
<path d="M361.782 245.162C352.21 245.162 344.815 250.932 343.121 252.521L342.242 246.479H330.914V302.682H344.526V268.653C344.526 262.014 353.588 256.517 360.219 256.517C366.849 256.517 371.828 262.857 371.828 270.409V302.682H385.44V271.753C385.396 257.017 379.038 245.162 361.782 245.162Z" fill="white"/>
<path d="M442.556 292.469C432.325 292.469 425.564 284.46 425.564 274.581C425.564 264.701 432.325 256.692 442.556 256.692C451.285 256.692 456.607 265.149 456.607 265.149L466.469 258.554C463.615 254.163 460.321 251.529 455.825 248.807C451.945 246.452 447.499 245.193 442.96 245.162C425.932 245.162 412.927 257.948 412.848 274.581C412.927 291.213 425.932 303.999 442.96 303.999C447.481 303.959 451.907 302.7 455.773 300.355C460.269 297.641 463.562 294.998 466.416 290.607L456.554 284.012C456.554 284.012 451.285 292.469 442.556 292.469Z" fill="white"/>
<path d="M295.428 245.162C291.566 245.1 287.731 245.81 284.148 247.251C280.565 248.693 277.306 250.836 274.563 253.554C271.819 256.273 269.647 259.513 268.174 263.083C266.701 266.653 265.956 270.481 265.983 274.343C265.983 290.282 277.909 303.999 295.63 303.999C311.674 303.999 324.82 291.705 324.82 274.686C324.82 255.199 309.532 245.162 295.428 245.162ZM295.595 256.719C304.034 256.719 312.026 263.568 312.026 274.607C312.026 285.408 304.069 292.451 295.56 292.451C286.207 292.451 278.875 284.934 278.875 274.519C278.875 264.332 286.155 256.719 295.639 256.719H295.595Z" fill="white"/>
</svg>
